Adsworth-8PTGXTdb.ufo
<glyph name="ampersand" format="2">
  <advance width="1431"/>
  <unicode hex="0026"/>
  <outline>
    <contour>
      <point x="854" y="648" type="line"/>
      <point x="1325" y="836" type="line"/>
      <point x="1415" y="612" type="line"/>
      <point x="929" y="460" type="line"/>
    </contour>
    <contour>
      <point x="770" y="659" type="line"/>
      <point x="656" y="659" type="line" smooth="yes"/>
      <point x="551" y="659"/>
      <point x="404" y="543"/>
      <point x="404" y="438" type="qcurve" smooth="yes"/>
      <point x="404" y="420" type="line" smooth="yes"/>
      <point x="404.0" y="320.0"/>
      <point x="540.0" y="200.0"/>
      <point x="676" y="200" type="qcurve" smooth="yes"/>
      <point x="703" y="200" type="line" smooth="yes"/>
      <point x="840.0" y="200.0"/>
      <point x="998.0" y="314.0"/>
      <point x="998" y="427" type="qcurve" smooth="yes"/>
      <point x="998" y="445" type="line" smooth="yes"/>
      <point x="998" y="463"/>
      <point x="994" y="515"/>
      <point x="991" y="532" type="qcurve"/>
      <point x="1213" y="597" type="line"/>
      <point x="1233" y="570"/>
      <point x="1274" y="448"/>
      <point x="1274" y="402" type="qcurve" smooth="yes"/>
      <point x="1274" y="389" type="line" smooth="yes"/>
      <point x="1274.0" y="238.0"/>
      <point x="969" y="-35"/>
      <point x="676" y="-35" type="qcurve" smooth="yes"/>
      <point x="669" y="-35" type="line" smooth="yes"/>
      <point x="392" y="-35"/>
      <point x="88" y="212"/>
      <point x="88" y="401" type="qcurve" smooth="yes"/>
      <point x="88" y="431" type="line" smooth="yes"/>
      <point x="88" y="555"/>
      <point x="228" y="760"/>
      <point x="332" y="806" type="qcurve"/>
      <point x="251" y="855"/>
      <point x="152" y="1013"/>
      <point x="152" y="1112" type="qcurve" smooth="yes"/>
      <point x="152" y="1138" type="line" smooth="yes"/>
      <point x="152" y="1305"/>
      <point x="411" y="1523"/>
      <point x="591" y="1523" type="qcurve" smooth="yes"/>
      <point x="597" y="1523" type="line" smooth="yes"/>
      <point x="792" y="1523"/>
      <point x="1071" y="1326"/>
      <point x="1062" y="1149" type="qcurve" smooth="yes"/>
      <point x="1062" y="1130" type="line"/>
      <point x="807" y="1130" type="line"/>
      <point x="807" y="1147" type="line" smooth="yes"/>
      <point x="807" y="1205"/>
      <point x="713" y="1277"/>
      <point x="619" y="1277" type="qcurve" smooth="yes"/>
      <point x="616" y="1277" type="line" smooth="yes"/>
      <point x="528" y="1277"/>
      <point x="426" y="1180"/>
      <point x="426" y="1099" type="qcurve" smooth="yes"/>
      <point x="426" y="1071" type="line" smooth="yes"/>
      <point x="426" y="988"/>
      <point x="536" y="894"/>
      <point x="626" y="889" type="qcurve" smooth="yes"/>
      <point x="772" y="888" type="line"/>
    </contour>
  </outline>
</glyph>
<glyph name="parenleft" format="2">
  <advance width="748"/>
  <unicode hex="0028"/>
  <outline>
    <contour>
      <point x="475" y="-357" type="line"/>
      <point x="51" y="102"/>
      <point x="52" y="1096"/>
      <point x="459" y="1551" type="qcurve"/>
      <point x="698" y="1411" type="line"/>
      <point x="353" y="1003"/>
      <point x="370" y="168"/>
      <point x="718" y="-220" type="qcurve"/>
    </contour>
  </outline>
</glyph>
<glyph name="asterisk" format="2">
  <advance width="1217"/>
  <unicode hex="002A"/>
  <outline>
    <contour>
      <point x="608" y="848" type="line"/>
      <point x="411" y="508" type="line"/>
      <point x="181" y="678" type="line"/>
      <point x="437" y="975" type="line"/>
      <point x="59" y="1053" type="line"/>
      <point x="151" y="1333" type="line"/>
      <point x="500" y="1180" type="line"/>
      <point x="464" y="1566" type="line"/>
      <point x="752" y="1566" type="line"/>
      <point x="715" y="1180" type="line"/>
      <point x="1066" y="1332" type="line"/>
      <point x="1158" y="1054" type="line"/>
      <point x="779" y="975" type="line"/>
      <point x="1036" y="678" type="line"/>
      <point x="804" y="508" type="line"/>
    </contour>
  </outline>
</glyph>
<glyph name="hyphen" format="2">
  <advance width="1432"/>
  <unicode hex="002D"/>
  <outline>
    <contour>
      <point x="1166" y="642" type="line"/>
      <point x="266" y="642" type="line"/>
      <point x="266" y="915" type="line"/>
      <point x="1166" y="915" type="line"/>
    </contour>
  </outline>
</glyph>
<glyph name="slash" format="2">
  <advance width="724"/>
  <unicode hex="002F"/>
  <outline>
    <contour>
      <point x="-88" y="0" type="line"/>
      <point x="552" y="1500" type="line"/>
      <point x="812" y="1500" type="line"/>
      <point x="172" y="0" type="line"/>
    </contour>
  </outline>
</glyph>
<glyph name="two" format="2">
  <advance width="996"/>
  <unicode hex="0032"/>
  <outline>
    <contour>
      <point x="965" y="0" type="line"/>
      <point x="35" y="0" type="line"/>
      <point x="35" y="187" type="line"/>
      <point x="535" y="882" type="line" smooth="yes"/>
      <point x="582" y="947"/>
      <point x="617" y="1062"/>
      <point x="617" y="1122" type="qcurve" smooth="yes"/>
      <point x="617" y="1149" type="line" smooth="yes"/>
      <point x="617" y="1209"/>
      <point x="536" y="1287"/>
      <point x="484" y="1287" type="qcurve" smooth="yes"/>
      <point x="466" y="1287" type="line" smooth="yes"/>
      <point x="410" y="1287"/>
      <point x="335" y="1206"/>
      <point x="336" y="1129" type="qcurve" smooth="yes"/>
      <point x="337" y="1058" type="line"/>
      <point x="29" y="1060" type="line"/>
      <point x="31" y="1170" type="line" smooth="yes"/>
      <point x="34" y="1327"/>
      <point x="281.0" y="1523.0"/>
      <point x="468" y="1523" type="qcurve" smooth="yes"/>
      <point x="487" y="1523" type="line" smooth="yes"/>
      <point x="679.0" y="1523.0"/>
      <point x="939" y="1328"/>
      <point x="939" y="1178" type="qcurve" smooth="yes"/>
      <point x="939" y="1166" type="line" smooth="yes"/>
      <point x="939.0" y="1039.0"/>
      <point x="877" y="879"/>
      <point x="824" y="808" type="qcurve" smooth="yes"/>
      <point x="407" y="245" type="line"/>
      <point x="965" y="245" type="line"/>
    </contour>
  </outline>
</glyph>
<glyph name="seven" format="2">
  <advance width="926"/>
  <unicode hex="0037"/>
  <outline>
    <contour>
      <point x="-28" y="1500" type="line"/>
      <point x="909" y="1500" type="line"/>
      <point x="911" y="1286" type="line"/>
      <point x="462" y="0" type="line"/>
      <point x="162" y="0" type="line"/>
      <point x="614" y="1265" type="line"/>
      <point x="-28" y="1265" type="line"/>
    </contour>
  </outline>
</glyph>
<glyph name="colon" format="2">
  <advance width="760"/>
  <unicode hex="003A"/>
  <outline>
    <contour>
      <point x="377" y="-22" type="line" smooth="yes"/>
      <point x="455" y="-22"/>
      <point x="559" y="81"/>
      <point x="559" y="152" type="qcurve" smooth="yes"/>
      <point x="559" y="163" type="line" smooth="yes"/>
      <point x="559" y="233"/>
      <point x="457" y="338"/>
      <point x="377" y="338" type="qcurve" smooth="yes"/>
      <point x="374" y="338" type="line" smooth="yes"/>
      <point x="300" y="338"/>
      <point x="201" y="233"/>
      <point x="201" y="163" type="qcurve" smooth="yes"/>
      <point x="201" y="152" type="line" smooth="yes"/>
      <point x="201" y="79"/>
      <point x="298" y="-22"/>
      <point x="374" y="-22" type="qcurve" smooth="yes"/>
    </contour>
    <contour>
      <point x="377" y="618" type="line" smooth="yes"/>
      <point x="455" y="618"/>
      <point x="559" y="721"/>
      <point x="559" y="792" type="qcurve" smooth="yes"/>
      <point x="559" y="803" type="line" smooth="yes"/>
      <point x="559" y="873"/>
      <point x="457" y="978"/>
      <point x="377" y="978" type="qcurve" smooth="yes"/>
      <point x="374" y="978" type="line" smooth="yes"/>
      <point x="300" y="978"/>
      <point x="201" y="873"/>
      <point x="201" y="803" type="qcurve" smooth="yes"/>
      <point x="201" y="792" type="line" smooth="yes"/>
      <point x="201" y="719"/>
      <point x="298" y="618"/>
      <point x="374" y="618" type="qcurve" smooth="yes"/>
    </contour>
  </outline>
</glyph>
<glyph name="C" format="2">
  <advance width="1483"/>
  <unicode hex="0043"/>
  <outline>
    <contour>
      <point x="805" y="211" type="line" smooth="yes"/>
      <point x="962" y="211"/>
      <point x="1139" y="373"/>
      <point x="1139" y="521" type="qcurve" smooth="yes"/>
      <point x="1140" y="552" type="line"/>
      <point x="1435" y="552" type="line"/>
      <point x="1435" y="500" type="line" smooth="yes"/>
      <point x="1435" y="275"/>
      <point x="1118" y="-32"/>
      <point x="799" y="-32" type="qcurve" smooth="yes"/>
      <point x="788" y="-32" type="line" smooth="yes"/>
      <point x="481" y="-32"/>
      <point x="100" y="381"/>
      <point x="100" y="724" type="qcurve" smooth="yes"/>
      <point x="100" y="775" type="line" smooth="yes"/>
      <point x="100" y="1119"/>
      <point x="477" y="1530"/>
      <point x="782" y="1530" type="qcurve" smooth="yes"/>
      <point x="794" y="1530" type="line" smooth="yes"/>
      <point x="1078" y="1530"/>
      <point x="1425" y="1234"/>
      <point x="1433" y="979" type="qcurve" smooth="yes"/>
      <point x="1434" y="947" type="line"/>
      <point x="1134" y="947" type="line"/>
      <point x="1133" y="958" type="line" smooth="yes"/>
      <point x="1119" y="1108"/>
      <point x="962" y="1275"/>
      <point x="801" y="1275" type="qcurve" smooth="yes"/>
      <point x="794" y="1275" type="line" smooth="yes"/>
      <point x="618.0" y="1275.0"/>
      <point x="424" y="1011"/>
      <point x="424" y="797" type="qcurve" smooth="yes"/>
      <point x="424" y="697" type="line" smooth="yes"/>
      <point x="424" y="483.0"/>
      <point x="621" y="211"/>
      <point x="800" y="211" type="qcurve" smooth="yes"/>
    </contour>
  </outline>
</glyph>
<glyph name="D" format="2">
  <advance width="1605"/>
  <unicode hex="0044"/>
  <outline>
    <contour>
      <point x="220" y="0" type="line"/>
      <point x="220" y="1500" type="line"/>
      <point x="535" y="1500" type="line"/>
      <point x="535" y="0" type="line"/>
    </contour>
    <contour>
      <point x="794" y="238" type="line" smooth="yes"/>
      <point x="984" y="238"/>
      <point x="1183" y="496"/>
      <point x="1183" y="730" type="qcurve" smooth="yes"/>
      <point x="1183" y="768" type="line" smooth="yes"/>
      <point x="1183" y="1000"/>
      <point x="981" y="1252"/>
      <point x="791" y="1258" type="qcurve" smooth="yes"/>
      <point x="451" y="1258" type="line"/>
      <point x="451" y="1500" type="line"/>
      <point x="835" y="1500" type="line" smooth="yes"/>
      <point x="1119" y="1500"/>
      <point x="1505" y="1107"/>
      <point x="1505" y="775" type="qcurve" smooth="yes"/>
      <point x="1505" y="724" type="line" smooth="yes"/>
      <point x="1505" y="392"/>
      <point x="1115" y="0"/>
      <point x="831" y="0" type="qcurve" smooth="yes"/>
      <point x="451" y="0" type="line"/>
      <point x="451" y="238" type="line"/>
    </contour>
  </outline>
</glyph>
<glyph name="E" format="2">
  <advance width="1260"/>
  <unicode hex="0045"/>
  <outline>
    <contour>
      <point x="220" y="0" type="line"/>
      <point x="220" y="1500" type="line"/>
      <point x="536" y="1500" type="line"/>
      <point x="536" y="0" type="line"/>
    </contour>
    <contour>
      <point x="1100" y="665" type="line"/>
      <point x="356" y="665" type="line"/>
      <point x="356" y="910" type="line"/>
      <point x="1100" y="910" type="line"/>
    </contour>
    <contour>
      <point x="1160" y="1255" type="line"/>
      <point x="356" y="1255" type="line"/>
      <point x="356" y="1500" type="line"/>
      <point x="1160" y="1500" type="line"/>
    </contour>
    <contour>
      <point x="1160" y="0" type="line"/>
      <point x="356" y="0" type="line"/>
      <point x="356" y="245" type="line"/>
      <point x="1160" y="245" type="line"/>
    </contour>
  </outline>
</glyph>
<glyph name="H" format="2">
  <advance width="1700"/>
  <unicode hex="0048"/>
  <outline>
    <contour>
      <point x="220" y="0" type="line"/>
      <point x="220" y="1500" type="line"/>
      <point x="535" y="1500" type="line"/>
      <point x="535" y="0" type="line"/>
    </contour>
    <contour>
      <point x="1165" y="0" type="line"/>
      <point x="1165" y="1500" type="line"/>
      <point x="1480" y="1500" type="line"/>
      <point x="1480" y="0" type="line"/>
    </contour>
    <contour>
      <point x="1386" y="660" type="line"/>
      <point x="416" y="660" type="line"/>
      <point x="416" y="915" type="line"/>
      <point x="1386" y="915" type="line"/>
    </contour>
  </outline>
</glyph>
<glyph name="T" format="2">
  <advance width="1188"/>
  <unicode hex="0054"/>
  <outline>
    <contour>
      <point x="438" y="0" type="line"/>
      <point x="438" y="1430" type="line"/>
      <point x="750" y="1430" type="line"/>
      <point x="750" y="0" type="line"/>
    </contour>
    <contour>
      <point x="1174" y="1255" type="line"/>
      <point x="14" y="1255" type="line"/>
      <point x="14" y="1500" type="line"/>
      <point x="1174" y="1500" type="line"/>
    </contour>
  </outline>
</glyph>
<glyph name="Y" format="2">
  <advance width="1230"/>
  <unicode hex="0059"/>
  <outline>
    <contour>
      <point x="459" y="500" type="line"/>
      <point x="-70" y="1500" type="line"/>
      <point x="310" y="1500" type="line"/>
      <point x="617" y="828" type="line"/>
      <point x="947" y="1500" type="line"/>
      <point x="1300" y="1500" type="line"/>
      <point x="772" y="500" type="line"/>
    </contour>
    <contour>
      <point x="458" y="0" type="line"/>
      <point x="458" y="570" type="line"/>
      <point x="773" y="570" type="line"/>
      <point x="773" y="0" type="line"/>
    </contour>
  </outline>
</glyph>
<glyph name="asciicircum" format="2">
  <advance width="1500"/>
  <unicode hex="005E"/>
  <outline>
    <contour>
      <point x="872.0" y="1513.0" type="line"/>
      <point x="1298.0" y="833.0" type="line"/>
      <point x="983.0" y="833.0" type="line"/>
      <point x="757.0" y="1240.0" type="line"/>
      <point x="516.0" y="833.0" type="line"/>
      <point x="202.0" y="833.0" type="line"/>
      <point x="632.0" y="1513.0" type="line"/>
    </contour>
  </outline>
</glyph>
<glyph name="g" format="2">
  <advance width="1408"/>
  <unicode hex="0067"/>
  <outline>
    <contour>
      <point x="1097" y="541" type="qcurve" smooth="yes"/>
      <point x="1097" y="506" type="line" smooth="yes"/>
      <point x="1097.0" y="315.0"/>
      <point x="837" y="-15"/>
      <point x="633" y="-15" type="qcurve" smooth="yes"/>
      <point x="626" y="-15" type="line" smooth="yes"/>
      <point x="372" y="-15"/>
      <point x="82" y="304.0"/>
      <point x="82" y="526" type="qcurve" smooth="yes"/>
      <point x="82" y="551" type="line" smooth="yes"/>
      <point x="82" y="772"/>
      <point x="386" y="1083"/>
      <point x="640" y="1083" type="qcurve" smooth="yes"/>
      <point x="647" y="1083" type="line" smooth="yes"/>
      <point x="855" y="1083"/>
      <point x="1097" y="760"/>
    </contour>
    <contour>
      <point x="952" y="533" type="line" smooth="yes"/>
      <point x="952" y="741"/>
      <point x="793" y="878"/>
      <point x="668" y="878" type="qcurve" smooth="yes"/>
      <point x="662" y="878" type="line" smooth="yes"/>
      <point x="539" y="878"/>
      <point x="393" y="700"/>
      <point x="393" y="533" type="qcurve" smooth="yes"/>
      <point x="393" y="519" type="line" smooth="yes"/>
      <point x="393" y="353.0"/>
      <point x="542" y="182"/>
      <point x="662" y="182" type="qcurve" smooth="yes"/>
      <point x="668" y="182" type="line" smooth="yes"/>
      <point x="785" y="182"/>
      <point x="952.0" y="336.0"/>
      <point x="952" y="509" type="qcurve" smooth="yes"/>
    </contour>
    <contour>
      <point x="260" y="-216" type="line"/>
      <point x="317" y="-229"/>
      <point x="477" y="-264"/>
      <point x="578" y="-264" type="qcurve" smooth="yes"/>
      <point x="747.0" y="-264.0"/>
      <point x="952.0" y="-97"/>
      <point x="952" y="98" type="qcurve" smooth="yes"/>
      <point x="952" y="1040" type="line"/>
      <point x="1233" y="1040" type="line"/>
      <point x="1233" y="29" type="line" smooth="yes"/>
      <point x="1233.0" y="-234.0"/>
      <point x="876" y="-490"/>
      <point x="588" y="-490" type="qcurve" smooth="yes"/>
      <point x="489" y="-490"/>
      <point x="330" y="-459"/>
      <point x="271" y="-444" type="qcurve"/>
    </contour>
  </outline>
</glyph>
<glyph name="j" format="2">
  <advance width="716"/>
  <unicode hex="006A"/>
  <outline>
    <contour>
      <point x="546" y="32" type="line" smooth="yes"/>
      <point x="546" y="-253"/>
      <point x="228" y="-498"/>
      <point x="-23" y="-498" type="qcurve" smooth="yes"/>
      <point x="-94" y="-498"/>
      <point x="-162" y="-489"/>
      <point x="-185" y="-481" type="qcurve"/>
      <point x="-173" y="-223" type="line"/>
      <point x="-151" y="-228"/>
      <point x="-77" y="-242"/>
      <point x="-14" y="-242" type="qcurve" smooth="yes"/>
      <point x="81" y="-242"/>
      <point x="250" y="-123"/>
      <point x="250" y="47" type="qcurve" smooth="yes"/>
      <point x="250" y="1042" type="line"/>
      <point x="546" y="1042" type="line"/>
    </contour>
    <contour>
      <point x="392" y="1198" type="line" smooth="yes"/>
      <point x="478" y="1198"/>
      <point x="566" y="1291"/>
      <point x="566" y="1363" type="qcurve" smooth="yes"/>
      <point x="566" y="1374" type="line" smooth="yes"/>
      <point x="566" y="1445"/>
      <point x="480" y="1540"/>
      <point x="392" y="1540" type="qcurve" smooth="yes"/>
      <point x="389" y="1540" type="line" smooth="yes"/>
      <point x="307" y="1540"/>
      <point x="223" y="1445"/>
      <point x="223" y="1374" type="qcurve" smooth="yes"/>
      <point x="223" y="1363" type="line" smooth="yes"/>
      <point x="223" y="1289"/>
      <point x="305" y="1198"/>
      <point x="389" y="1198" type="qcurve" smooth="yes"/>
    </contour>
    <contour>
      <point x="323" y="800" type="line"/>
      <point x="11" y="800" type="line"/>
      <point x="11" y="1042" type="line"/>
      <point x="323" y="1042" type="line"/>
    </contour>
  </outline>
</glyph>
<glyph name="m" format="2">
  <advance width="2068"/>
  <unicode hex="006D"/>
  <outline>
    <contour>
      <point x="175" y="0" type="line"/>
      <point x="175" y="1040" type="line"/>
      <point x="465" y="1040" type="line"/>
      <point x="475" y="0" type="line"/>
    </contour>
    <contour>
      <point x="283" y="650" type="line"/>
      <point x="340" y="817"/>
      <point x="615" y="1080"/>
      <point x="803" y="1080" type="qcurve" smooth="yes"/>
      <point x="968" y="1080"/>
      <point x="1192" y="905"/>
      <point x="1195" y="723" type="qcurve" smooth="yes"/>
      <point x="1195" y="0" type="line"/>
      <point x="894" y="0" type="line"/>
      <point x="894" y="688" type="line" smooth="yes"/>
      <point x="894" y="781"/>
      <point x="803" y="855"/>
      <point x="734" y="855" type="qcurve" smooth="yes"/>
      <point x="616" y="855"/>
      <point x="410" y="646"/>
      <point x="323" y="489" type="qcurve"/>
    </contour>
    <contour>
      <point x="1006" y="650" type="line"/>
      <point x="1063" y="817"/>
      <point x="1338" y="1080"/>
      <point x="1526" y="1080" type="qcurve" smooth="yes"/>
      <point x="1691" y="1080"/>
      <point x="1915" y="905"/>
      <point x="1918" y="723" type="qcurve" smooth="yes"/>
      <point x="1918" y="0" type="line"/>
      <point x="1617" y="0" type="line"/>
      <point x="1617" y="688" type="line" smooth="yes"/>
      <point x="1617" y="781"/>
      <point x="1526" y="855"/>
      <point x="1457" y="855" type="qcurve" smooth="yes"/>
      <point x="1339" y="855"/>
      <point x="1133" y="646"/>
      <point x="1046" y="489" type="qcurve"/>
    </contour>
  </outline>
</glyph>
<glyph name="o" format="2">
  <advance width="1334"/>
  <unicode hex="006F"/>
  <outline>
    <contour>
      <point x="659" y="-24" type="line" smooth="yes"/>
      <point x="401" y="-24"/>
      <point x="82" y="272"/>
      <point x="82" y="504" type="qcurve" smooth="yes"/>
      <point x="82" y="540" type="line" smooth="yes"/>
      <point x="82" y="781"/>
      <point x="397" y="1081"/>
      <point x="655" y="1081" type="qcurve" smooth="yes"/>
      <point x="663" y="1081" type="line" smooth="yes"/>
      <point x="926" y="1081"/>
      <point x="1252" y="782"/>
      <point x="1252" y="540" type="qcurve" smooth="yes"/>
      <point x="1252" y="504" type="line" smooth="yes"/>
      <point x="1252" y="272"/>
      <point x="929" y="-24"/>
      <point x="667" y="-24" type="qcurve" smooth="yes"/>
    </contour>
    <contour>
      <point x="663" y="185" type="line" smooth="yes"/>
      <point x="789" y="185"/>
      <point x="942" y="347"/>
      <point x="942" y="511" type="qcurve" smooth="yes"/>
      <point x="942" y="537" type="line" smooth="yes"/>
      <point x="942" y="702"/>
      <point x="792" y="871"/>
      <point x="663" y="871" type="qcurve" smooth="yes"/>
      <point x="655" y="871" type="line" smooth="yes"/>
      <point x="537" y="871"/>
      <point x="392" y="702"/>
      <point x="392" y="537" type="qcurve" smooth="yes"/>
      <point x="392" y="511" type="line" smooth="yes"/>
      <point x="392" y="347"/>
      <point x="534" y="185"/>
      <point x="655" y="185" type="qcurve" smooth="yes"/>
    </contour>
  </outline>
</glyph>
<glyph name="p" format="2">
  <advance width="1358"/>
  <unicode hex="0070"/>
  <outline>
    <contour>
      <point x="175" y="-470" type="line"/>
      <point x="175" y="1040" type="line"/>
      <point x="455" y="1040" type="line"/>
      <point x="475" y="-470" type="line"/>
    </contour>
    <contour>
      <point x="307" y="549" type="line" smooth="yes"/>
      <point x="307" y="718"/>
      <point x="563" y="1080"/>
      <point x="758" y="1080" type="qcurve" smooth="yes"/>
      <point x="766" y="1080" type="line" smooth="yes"/>
      <point x="1019" y="1080"/>
      <point x="1276" y="770"/>
      <point x="1276" y="549" type="qcurve" smooth="yes"/>
      <point x="1276" y="514" type="line" smooth="yes"/>
      <point x="1276" y="293"/>
      <point x="1025" y="-12"/>
      <point x="772" y="-12" type="qcurve" smooth="yes"/>
      <point x="765" y="-12" type="line" smooth="yes"/>
      <point x="530" y="-12"/>
      <point x="307" y="344"/>
      <point x="307" y="514" type="qcurve" smooth="yes"/>
    </contour>
    <contour>
      <point x="463" y="547" type="qcurve" smooth="yes"/>
      <point x="463" y="523" type="line" smooth="yes"/>
      <point x="463" y="357"/>
      <point x="585.0" y="177.0"/>
      <point x="715" y="177" type="qcurve" smooth="yes"/>
      <point x="722" y="177" type="line" smooth="yes"/>
      <point x="847" y="177"/>
      <point x="968" y="356"/>
      <point x="968" y="523" type="qcurve" smooth="yes"/>
      <point x="968" y="547" type="line" smooth="yes"/>
      <point x="968" y="716"/>
      <point x="829.0" y="877.0"/>
      <point x="712" y="877" type="qcurve" smooth="yes"/>
      <point x="705" y="877" type="line" smooth="yes"/>
      <point x="597.0" y="877.0"/>
      <point x="463.0" y="712.0"/>
    </contour>
  </outline>
</glyph>
<glyph name="s" format="2">
  <advance width="1180"/>
  <unicode hex="0073"/>
  <outline>
    <contour>
      <point x="835.0" y="296" type="line" smooth="yes"/>
      <point x="835" y="342"/>
      <point x="763.0" y="383"/>
      <point x="552.0" y="435" type="qcurve" smooth="yes"/>
      <point x="341" y="487"/>
      <point x="103" y="636"/>
      <point x="103.0" y="778" type="qcurve" smooth="yes"/>
      <point x="103.0" y="788" type="line" smooth="yes"/>
      <point x="103" y="913"/>
      <point x="361.0" y="1081.0"/>
      <point x="602.0" y="1081" type="qcurve" smooth="yes"/>
      <point x="611.0" y="1081" type="line" smooth="yes"/>
      <point x="855" y="1081"/>
      <point x="1080" y="917"/>
      <point x="1088.0" y="776" type="qcurve" smooth="yes"/>
      <point x="1092.0" y="720" type="line"/>
      <point x="811.0" y="720" type="line"/>
      <point x="811.0" y="766.0" type="line" smooth="yes"/>
      <point x="811" y="826"/>
      <point x="708" y="872"/>
      <point x="613.0" y="872.0" type="qcurve" smooth="yes"/>
      <point x="607.0" y="872.0" type="line" smooth="yes"/>
      <point x="506" y="872.0"/>
      <point x="397" y="839"/>
      <point x="397.0" y="798.0" type="qcurve" smooth="yes"/>
      <point x="397.0" y="792.0" type="line" smooth="yes"/>
      <point x="397" y="754"/>
      <point x="511.0" y="712"/>
      <point x="699.0" y="663" type="qcurve" smooth="yes"/>
      <point x="903.0" y="610"/>
      <point x="1126" y="466"/>
      <point x="1126.0" y="334" type="qcurve" smooth="yes"/>
      <point x="1126.0" y="313" type="line" smooth="yes"/>
      <point x="1126" y="164"/>
      <point x="862" y="-26"/>
      <point x="625.0" y="-26" type="qcurve" smooth="yes"/>
      <point x="622.0" y="-26" type="line" smooth="yes"/>
      <point x="363" y="-26"/>
      <point x="104" y="162"/>
      <point x="95" y="312" type="qcurve" smooth="yes"/>
      <point x="93.0" y="351" type="line"/>
      <point x="413.0" y="351.0" type="line"/>
      <point x="413.0" y="299.0" type="line" smooth="yes"/>
      <point x="413" y="235"/>
      <point x="539.0" y="171.0"/>
      <point x="631.0" y="171.0" type="qcurve" smooth="yes"/>
      <point x="634.0" y="171.0" type="line" smooth="yes"/>
      <point x="715.0" y="171.0"/>
      <point x="835" y="229"/>
      <point x="835.0" y="293" type="qcurve" smooth="yes"/>
    </contour>
  </outline>
</glyph>
<glyph name="u" format="2">
  <advance width="1365"/>
  <unicode hex="0075"/>
  <outline>
    <contour>
      <point x="1190.0" y="1040.0" type="line"/>
      <point x="1190.0" y="0.0" type="line"/>
      <point x="900.0" y="0.0" type="line"/>
      <point x="890.0" y="1040.0" type="line"/>
    </contour>
    <contour>
      <point x="1082.0" y="390.0" type="line"/>
      <point x="1025.0" y="223.0"/>
      <point x="730.0" y="-40.0"/>
      <point x="542.0" y="-40.0" type="qcurve" smooth="yes"/>
      <point x="367.0" y="-40.0"/>
      <point x="150" y="135"/>
      <point x="150.0" y="317.0" type="qcurve" smooth="yes"/>
      <point x="150.0" y="1040.0" type="line"/>
      <point x="451.0" y="1040.0" type="line"/>
      <point x="451.0" y="362.0" type="line" smooth="yes"/>
      <point x="451.0" y="269.0"/>
      <point x="542.0" y="195.0"/>
      <point x="621.0" y="195.0" type="qcurve" smooth="yes"/>
      <point x="739.0" y="195.0"/>
      <point x="955.0" y="404.0"/>
      <point x="1042.0" y="561.0" type="qcurve"/>
    </contour>
  </outline>
</glyph>
<glyph name="v" format="2">
  <advance width="1093"/>
  <unicode hex="0076"/>
  <outline>
    <contour>
      <point x="401" y="1" type="line"/>
      <point x="-30" y="1041" type="line"/>
      <point x="269" y="1041" type="line"/>
      <point x="557" y="300" type="line"/>
      <point x="836" y="1041" type="line"/>
      <point x="1123" y="1041" type="line"/>
      <point x="698" y="1" type="line"/>
    </contour>
  </outline>
</glyph>
<glyph name="z" format="2">
  <advance width="986"/>
  <unicode hex="007A"/>
  <outline>
    <contour>
      <point x="958" y="1" type="line"/>
      <point x="47" y="1" type="line"/>
      <point x="42" y="217" type="line"/>
      <point x="570" y="815" type="line"/>
      <point x="48" y="815" type="line"/>
      <point x="48" y="1041" type="line"/>
      <point x="937" y="1041" type="line"/>
      <point x="937" y="850" type="line"/>
      <point x="382" y="227" type="line"/>
      <point x="958" y="227" type="line"/>
    </contour>
  </outline>
</glyph>
